<svg width="779" height="899" viewBox="0 0 779 899" fill="none" xmlns="http://www.w3.org/2000/svg">
<path opacity="0.07" d="M331.2 2.19988L778.1 502.1L331.1 486.1C327.8 486 324.2 480.6 325 477L370 277.2L595.2 390L367.3 241.1L325.1 4.39988C324.3 -0.200116 327.9 -1.40012 331.2 2.19988Z" fill="url(#paint0_linear)"/>
<path opacity="0.4" d="M296.9 27.1L743.8 527L296.8 511C293.5 510.9 289.9 505.5 290.7 501.9L335.6 302.2L560.8 415L333.1 266L290.8 29.3C290 24.7 293.6 23.5 296.9 27.1Z" fill="url(#paint1_linear)"/>
<path opacity="0.3" d="M329.8 555.2L32.2002 383.4L32.3002 538.5L303.6 695.1L329.9 734L329.8 555.2Z" fill="url(#paint2_linear)"/>
<path d="M0.5 443.9V401.8L112.8 466.6V508.7L0.5 443.9Z" fill="#F2994A"/>
<path opacity="0.15" d="M253.3 548.8L188.1 511.2V524.8L253.3 562.4V548.8Z" fill="white"/>
<path opacity="0.15" d="M253.3 576L127.6 503.5V517.1L253.3 589.6V576Z" fill="white"/>
<path opacity="0.15" d="M253.4 603.3L101.1 515.4V529L253.4 616.9V603.3Z" fill="white"/>
<path d="M269.4 572.2C269.4 585 277 599.7 286.3 605.1C295.6 610.5 303.2 604.5 303.2 591.7C303.2 578.9 295.6 564.2 286.3 558.8C276.9 553.4 269.4 559.4 269.4 572.2Z" fill="#F2994A"/>
<path opacity="0.3" d="M355.5 427.1L653.1 598.9L653.2 754L381.8 597.3L355.6 605.9L355.5 427.1Z" fill="url(#paint3_linear)"/>
<path d="M566.5 626.2V584.1L678.8 648.9V691L566.5 626.2Z" fill="#F2C94C"/>
<path opacity="0.15" d="M432 509L497.2 546.6V560.2L432 522.6V509Z" fill="white"/>
<path opacity="0.15" d="M432 536.3L549.7 604.2V617.8L432 549.9V536.3Z" fill="white"/>
<path opacity="0.15" d="M432.1 563.5L584.4 651.4V665L432.1 577.1V563.5Z" fill="white"/>
<path d="M416 513.9C416 526.7 408.4 532.7 399.1 527.3C389.8 521.9 382.2 507.2 382.2 494.4C382.2 481.6 389.8 475.6 399.1 481C408.4 486.4 416 501.2 416 513.9Z" fill="#F2C94C"/>
<path opacity="0.2" d="M693.8 806.3L516.1 703.7V796.3L693.8 898.9V806.3Z" fill="url(#paint4_linear)"/>
<path opacity="0.15" d="M561.6 752.3L615 783.2V794.3L561.6 763.4V752.3Z" fill="white"/>
<path opacity="0.15" d="M561.6 774.6L675.4 840.3V851.6L561.6 785.9V774.6Z" fill="white"/>
<path d="M552.2 755.6C552.2 763.2 547.7 766.8 542.1 763.6C536.5 760.4 532 751.6 532 744C532 736.4 536.5 732.8 542.1 736C547.7 739.2 552.2 748 552.2 755.6Z" fill="#F2C94C"/>
<path opacity="0.2" d="M201.8 664.3L24.1001 561.7V654.3L201.8 756.9V664.3Z" fill="url(#paint5_linear)"/>
<path opacity="0.15" d="M69.6001 610.3L123 641.2V652.3L69.6001 621.4V610.3Z" fill="white"/>
<path opacity="0.15" d="M69.6001 632.6L183.4 698.3V709.6L69.6001 643.9V632.6Z" fill="white"/>
<path d="M60.2 613.6C60.2 621.2 55.7 624.8 50.1 621.6C44.5 618.4 40 609.6 40 602C40 594.4 44.5 590.8 50.1 594C55.7 597.2 60.2 606 60.2 613.6Z" fill="#F2994A"/>
<path opacity="0.2" d="M227.3 369.8L184.5 345.1V330.7L227.3 355.4C230.8 357.4 235.9 361.5 240.2 367.8C244.9 374.5 248.2 383 248.2 392.2C248.2 402.4 245.6 408.2 240.7 409.8C236.1 411.3 230.6 408.7 227.3 406.8L209.7 396.6L209.6 396.5C208.1 395.6 205.7 394.7 203.8 395.3C202.2 395.8 200.5 397.3 200.5 403C200.5 408.7 202.3 412.1 203.7 414.2C205.5 416.8 207.9 418.6 209.4 419.4L209.6 419.5L263.4 450.6V465L209.9 434.1C206.2 432.2 200.9 428.1 196.3 421.7C191.3 414.6 187.9 405.7 187.9 395.8C187.9 385.9 191.3 380.9 196.2 379.5C200.8 378.2 206.1 380.1 209.8 382.3L227.2 392.3C229.7 393.8 231.6 394.4 232.9 394C233.9 393.7 235.7 392.3 235.7 385C235.7 380.2 234.2 377.1 232.7 375.1C231 372.5 228.7 370.6 227.3 369.8Z" fill="white"/>
<path d="M192.3 342C192.3 354.9 184.7 361 175.4 355.7C166.1 350.3 158.5 335.5 158.5 322.5C158.5 309.6 166.1 303.5 175.4 308.8C184.7 314.2 192.3 329.1 192.3 342Z" fill="#F2994A"/>
<path d="M285.3 470C285.3 482.9 277.7 489 268.4 483.7C259.1 478.3 251.5 463.5 251.5 450.5C251.5 437.6 259.1 431.5 268.4 436.8C277.7 442.2 285.3 457.1 285.3 470Z" fill="#F2C94C"/>
<path opacity="0.2" d="M404.1 676.7V761C404.1 761.9 405 762.9 405.6 762.6L425.3 750.5L445.4 786.1C446.5 788 448.4 788.2 448.4 786.4V702.4L404.1 676.7Z" fill="url(#paint6_linear)"/>
<defs>
<linearGradient id="paint0_linear" x1="610.738" y1="173.765" x2="407.093" y2="442.696" gradientUnits="userSpaceOnUse">
<stop stop-color="white"/>
<stop offset="1" stop-color="white" stop-opacity="0"/>
</linearGradient>
<linearGradient id="paint1_linear" x1="576.483" y1="198.675" x2="372.838" y2="467.606" gradientUnits="userSpaceOnUse">
<stop stop-color="white"/>
<stop offset="1" stop-color="white" stop-opacity="0"/>
</linearGradient>
<linearGradient id="paint2_linear" x1="264.925" y1="493.046" x2="111.274" y2="613.35" gradientUnits="userSpaceOnUse">
<stop stop-color="white"/>
<stop offset="1" stop-color="white" stop-opacity="0"/>
</linearGradient>
<linearGradient id="paint3_linear" x1="483.339" y1="432.096" x2="521.81" y2="744.128" gradientUnits="userSpaceOnUse">
<stop stop-color="white"/>
<stop offset="1" stop-color="white" stop-opacity="0"/>
</linearGradient>
<linearGradient id="paint4_linear" x1="624.982" y1="766.584" x2="584.898" y2="836.03" gradientUnits="userSpaceOnUse">
<stop stop-color="white"/>
<stop offset="1" stop-color="white" stop-opacity="0"/>
</linearGradient>
<linearGradient id="paint5_linear" x1="132.982" y1="624.583" x2="92.898" y2="694.028" gradientUnits="userSpaceOnUse">
<stop stop-color="white"/>
<stop offset="1" stop-color="white" stop-opacity="0"/>
</linearGradient>
<linearGradient id="paint6_linear" x1="445.407" y1="719.791" x2="394.986" y2="751.723" gradientUnits="userSpaceOnUse">
<stop stop-color="white"/>
<stop offset="1" stop-color="white" stop-opacity="0"/>
</linearGradient>
</defs>
</svg>
